<?xml version="1.0" standalone="no"?>
<!DOCTYPE svg PUBLIC "-//W3C//DTD SVG 20010904//EN"
 "http://www.w3.org/TR/2001/REC-SVG-20010904/DTD/svg10.dtd">
<svg version="1.0" xmlns="http://www.w3.org/2000/svg"
 width="1728.000000pt" height="1728.000000pt" viewBox="0 0 1728.000000 1728.000000"
 preserveAspectRatio="xMidYMid meet">
<metadata>
Created by potrace 1.14, written by Peter Selinger 2001-2017
</metadata>
<g transform="translate(0.000000,1728.000000) scale(0.100000,-0.100000)"
fill="#000000" stroke="none">
<path d="M8298 17275 c-2 -1 -59 -5 -128 -9 -69 -3 -150 -8 -180 -11 -84 -6
-196 -16 -227 -20 -33 -4 -147 -16 -183 -20 -56 -6 -136 -16 -150 -20 -8 -2
-35 -7 -60 -10 -67 -9 -84 -12 -215 -34 -162 -28 -161 -28 -320 -62 -501 -108
-967 -251 -1445 -444 -63 -25 -128 -52 -145 -59 -16 -8 -52 -24 -80 -36 -370
-165 -695 -334 -993 -516 -57 -35 -105 -64 -107 -64 -3 0 -340 -222 -370 -244
-11 -8 -74 -54 -140 -101 -66 -48 -133 -98 -150 -111 -16 -14 -34 -28 -40 -32
-62 -47 -143 -110 -154 -120 -8 -8 -46 -39 -85 -70 -39 -31 -78 -64 -86 -72
-8 -8 -46 -42 -85 -75 -169 -144 -463 -427 -613 -590 -117 -127 -214 -236
-277 -310 -37 -44 -77 -91 -88 -105 -12 -14 -40 -48 -62 -75 -21 -28 -42 -52
-45 -55 -11 -10 -267 -356 -311 -420 -24 -36 -47 -66 -51 -68 -5 -2 -8 -10 -8
-17 0 -7 -4 -15 -8 -17 -16 -7 -281 -430 -374 -598 -20 -36 -53 -94 -73 -130
-65 -118 -243 -480 -301 -614 -31 -72 -65 -149 -75 -171 -148 -330 -376 -1044
-453 -1415 -3 -14 -16 -77 -30 -140 -14 -63 -27 -131 -31 -150 -3 -19 -12 -69
-20 -110 -14 -72 -28 -160 -40 -245 -3 -22 -8 -56 -11 -75 -7 -43 -12 -80 -19
-145 -3 -27 -8 -68 -10 -90 -9 -71 -13 -108 -20 -195 -4 -47 -9 -101 -11 -120
-26 -231 -25 -1003 1 -1310 2 -25 7 -78 10 -117 4 -40 8 -85 10 -100 1 -16 6
-59 10 -98 4 -38 9 -78 10 -87 2 -9 6 -45 10 -79 4 -35 8 -66 10 -69 1 -3 6
-27 9 -55 13 -101 38 -245 78 -440 47 -234 43 -215 51 -240 3 -11 9 -32 12
-47 13 -70 17 -86 31 -134 8 -28 17 -61 19 -74 2 -13 12 -48 21 -79 9 -31 17
-63 19 -71 2 -8 22 -76 45 -150 120 -392 250 -735 412 -1092 40 -89 238 -484
277 -553 15 -27 43 -77 61 -110 18 -33 41 -72 52 -87 10 -14 18 -28 18 -31 0
-11 168 -279 273 -436 97 -145 389 -547 408 -561 4 -3 24 -27 45 -55 21 -27
42 -55 48 -61 6 -6 27 -30 46 -54 19 -24 40 -48 45 -54 6 -6 37 -42 70 -81 33
-38 67 -76 75 -85 235 -255 387 -410 550 -560 57 -52 110 -102 119 -110 9 -9
48 -43 86 -75 39 -33 72 -63 75 -66 4 -4 250 -205 315 -257 191 -152 629 -452
843 -577 465 -271 802 -439 1227 -610 324 -130 737 -268 1005 -335 19 -5 62
-16 95 -24 33 -9 69 -18 80 -21 11 -2 38 -9 60 -14 22 -6 55 -13 74 -16 19 -3
38 -8 41 -10 4 -3 25 -7 46 -11 22 -3 55 -9 74 -14 19 -5 49 -11 65 -14 17 -3
55 -10 85 -16 115 -23 253 -46 320 -55 25 -3 63 -8 85 -12 46 -7 47 -7 180
-23 175 -20 231 -25 360 -35 216 -16 340 -20 655 -20 315 0 544 7 650 19 19 3
73 7 120 11 47 4 96 8 110 10 41 5 153 17 180 20 56 6 136 16 150 20 8 2 35 7
60 10 67 9 84 12 215 34 163 28 159 28 340 67 247 54 454 107 705 182 77 23
366 119 395 132 11 4 94 36 185 70 91 35 190 74 220 87 30 13 64 28 75 33 165
69 475 217 605 288 47 26 87 47 90 47 11 1 253 140 355 203 28 17 64 39 80 48
56 31 310 199 313 206 2 5 10 8 17 8 7 0 15 3 17 8 2 4 32 27 68 51 61 41 409
299 420 311 3 3 28 23 55 45 28 22 56 45 63 52 7 7 34 29 60 50 26 21 52 43
58 48 6 6 37 33 69 60 232 199 580 543 765 756 30 34 62 70 70 79 8 8 60 69
115 135 55 66 102 122 105 125 3 3 27 34 55 70 27 36 53 70 58 75 14 16 200
270 217 295 8 12 20 28 25 34 33 36 285 433 397 626 132 225 317 591 414 814
31 72 65 149 75 171 91 204 307 822 344 985 2 8 17 67 34 130 25 93 70 276 86
350 2 8 8 35 14 60 5 25 12 58 15 74 3 16 10 52 15 80 6 28 12 62 15 76 2 14
7 36 10 50 3 14 8 43 11 65 3 22 9 63 15 90 5 28 11 68 14 90 3 22 7 56 10 75
30 206 37 271 51 445 4 44 9 96 10 115 27 268 27 1000 0 1310 -2 25 -7 78 -10
117 -4 40 -8 85 -10 100 -1 16 -6 60 -10 98 -4 39 -9 78 -10 87 -2 9 -6 45
-10 79 -4 35 -8 66 -10 69 -1 3 -6 28 -9 55 -23 182 -73 444 -133 695 -8 36
-17 76 -19 89 -3 14 -18 74 -35 135 -16 61 -39 147 -51 191 -11 44 -25 84 -29
90 -5 5 -9 16 -9 25 0 57 -219 662 -341 942 -86 198 -267 571 -331 683 -19 33
-70 123 -113 200 -43 77 -81 142 -85 145 -3 3 -24 37 -47 75 -40 68 -183 289
-200 310 -4 6 -26 37 -48 70 -22 33 -46 66 -53 73 -6 8 -17 22 -23 33 -9 18
-157 216 -264 354 -42 54 -105 132 -140 171 -11 12 -29 33 -39 46 -25 30 -126
147 -146 168 -276 299 -456 480 -659 660 -40 36 -83 74 -95 85 -22 21 -234
198 -296 248 -276 220 -681 502 -938 652 -10 6 -55 32 -102 59 -706 411 -1458
718 -2235 912 -153 38 -185 46 -200 50 -5 1 -67 14 -137 28 -70 15 -133 28
-140 31 -7 2 -31 6 -53 9 -40 6 -59 9 -150 26 -27 5 -68 12 -90 15 -22 3 -67
10 -100 15 -93 14 -125 18 -262 34 -21 3 -67 8 -103 11 -36 3 -81 8 -100 10
-19 3 -80 7 -135 11 -55 3 -122 8 -150 11 -57 5 -832 13 -837 8z"/>
</g>
</svg>
